<?xml version="1.0" encoding="UTF-8"?>
<!-- Generated by Pixelmator Pro 2.4.2 -->
<svg width="684" height="750" viewBox="0 0 684 750" xmlns="http://www.w3.org/2000/svg" xmlns:xlink="http://www.w3.org/1999/xlink">
    <g id="SVGRepobgCarrier"/>
    <g id="SVGRepotracerCarrier"/>
    <g id="SVGRepoiconCarrier">
        <path id="path1" fill="#ffbe0b" stroke="none" d="M 341.998596 750.33429 C 528.494263 750.33429 683.518555 595.647156 683.518555 408.817169 C 683.518555 330.802856 656.39856 258.482849 611.194275 200.558594 L 637.308594 174.107117 C 645.01001 166.405701 649.364258 156.027161 649.364258 146.987122 C 649.364258 128.237122 634.298584 113.169983 614.877136 113.169983 C 603.494263 113.169983 595.458557 116.517151 587.422852 124.218567 L 561.975708 149.330017 C 510.748596 105.802856 447.132843 76.674255 377.490021 69.308594 L 377.490021 36.495728 C 377.490021 16.405701 361.418579 -0.33429 341.664276 -0.33429 C 321.908569 -0.33429 305.502869 16.405701 305.502869 36.495728 L 305.502869 69.308594 C 135.414276 87.722839 0.481426 234.374268 0.481426 408.817169 C 0.481426 595.647156 155.168564 750.33429 341.998596 750.33429 Z M 341.998596 693.41571 C 183.962875 693.41571 57.734291 566.852844 57.734291 408.817169 C 57.734291 251.115723 183.628571 124.218567 341.664276 124.218567 C 499.364258 124.218567 626.261414 251.115723 626.598572 408.817169 C 626.934265 566.852844 499.700012 693.41571 341.998596 693.41571 Z M 341.998596 463.057159 C 371.79715 463.057159 395.570007 438.951447 395.570007 409.151428 C 395.570007 388.058594 383.517151 369.642853 365.10144 360.602875 L 365.10144 194.197144 C 365.10144 181.13855 354.721405 171.094299 341.664276 171.094299 C 328.605713 171.094299 318.561432 181.13855 318.561432 194.197144 L 318.561432 360.267151 C 300.145721 369.977142 287.757141 388.058594 287.757141 409.151428 C 287.757141 438.951447 311.864258 463.057159 341.998596 463.057159 Z"/>
    </g>
</svg>
