<?xml version="1.0" encoding="UTF-8"?>
<!-- Generated by Pixelmator Pro 2.4.2 -->
<svg width="800" height="606" viewBox="0 0 800 606" xmlns="http://www.w3.org/2000/svg" xmlns:xlink="http://www.w3.org/1999/xlink">
    <g id="SVGRepobgCarrier"/>
    <g id="SVGRepotracerCarrier"/>
    <g id="SVGRepoiconCarrier">
        <g id="g1">
            <g id="g2">
                <path id="path1" fill="#f9f9f9" stroke="none" d="M 787.52655 405.293732 C 794.417175 405.293732 800 399.710907 800 392.820282 L 800 356.898438 C 800 322.506256 772.021851 294.528137 737.6297 294.528137 L 700.207825 294.528137 L 700.207825 195.567169 C 700.207825 147.420288 661.035889 108.248413 612.889038 108.248413 L 513.096863 108.248413 C 492.462494 108.248413 475.675018 125.037476 475.675018 145.670349 L 475.675018 381.014038 L 380.871857 381.014038 L 380.871857 339.379669 L 398.728119 334.948425 C 402.46405 334.020294 405.5625 331.420319 407.123413 327.903107 L 469.209381 188.049988 C 470.814087 184.4375 470.610962 180.279663 468.662506 176.840637 L 413.568726 79.59375 C 412.251556 77.268738 410.220276 75.428101 407.778107 74.34375 L 386.770325 65.018738 C 380.476563 62.22345 373.103119 65.060913 370.309387 71.359375 C 367.514069 77.654663 370.351563 85.02655 376.649994 87.820313 L 386.256256 92.084351 L 278.954712 333.78595 L 158.862488 280.473419 L 266.16095 38.771851 L 323.418762 64.190613 C 329.71875 66.990601 337.087494 64.148438 339.879669 57.849976 C 342.674988 51.554688 339.837494 44.1828 333.539063 41.389038 L 264.882813 10.909363 C 263.484375 10.287476 261.982819 9.929688 260.453125 9.851563 L 75.365623 0.470337 C 70.203125 0.190613 65.426567 3.148438 63.334377 7.867188 L 1.248438 147.720337 C -0.815625 152.368713 0.148438 157.804688 3.685937 161.457825 L 43.242188 202.3172 L 43.242188 381.015625 L 12.473437 381.015625 C 5.582812 381.015625 0 386.598419 0 393.489044 L 0 486.628113 C 0 493.518768 5.582812 499.101563 12.473437 499.101563 L 47.198441 499.101563 C 46.796875 502.653137 46.570313 506.256287 46.570313 509.912537 C 46.570313 562.645325 89.470314 605.546875 142.204697 605.546875 C 194.9375 605.546875 237.83905 562.646912 237.83905 509.912537 C 237.83905 506.256287 237.612503 502.653137 237.210938 499.101563 L 253.435944 499.101563 C 253.034378 502.653137 252.8078 506.256287 252.8078 509.912537 C 252.8078 562.645325 295.707825 605.546875 348.4422 605.546875 C 401.175018 605.546875 444.076599 562.646912 444.076599 509.912537 C 444.076599 506.256287 443.850006 502.653137 443.448456 499.101563 L 569.443726 499.101563 C 569.042236 502.653137 568.815613 506.256287 568.815613 509.912537 C 568.815613 562.645325 611.715576 605.546875 664.449951 605.546875 C 717.1828 605.546875 760.084412 562.646912 760.084412 509.912537 C 760.084412 506.256287 759.857788 502.653137 759.456238 499.101563 L 787.53125 499.101563 C 794.421875 499.101563 800.0047 493.518768 800.0047 486.628113 L 800.0047 446.03595 C 800.0047 439.145294 794.421875 433.5625 787.53125 433.5625 C 780.640625 433.5625 775.0578 439.145294 775.0578 446.03595 L 775.0578 474.154694 L 753.126587 474.154694 C 738.934387 439.08905 704.548462 414.279663 664.454712 414.279663 C 624.360962 414.279663 589.975037 439.08905 575.782837 474.154694 L 437.118774 474.154694 C 422.926575 439.08905 388.540619 414.279663 348.446869 414.279663 C 308.353119 414.279663 273.967194 439.08905 259.774994 474.154694 L 230.874985 474.154694 C 216.682816 439.08905 182.296875 414.279663 142.203125 414.279663 C 102.109375 414.279663 67.723434 439.08905 53.531246 474.154694 L 24.948437 474.154694 L 24.948437 405.964081 L 488.149963 405.964081 C 495.040619 405.964081 500.623413 400.381256 500.623413 393.490631 L 500.623413 145.671875 C 500.623413 138.792175 506.218781 133.198425 513.096863 133.198425 L 612.889038 133.198425 C 647.28125 133.198425 675.259338 161.176575 675.259338 195.568756 L 675.259338 307.003143 C 675.259338 313.893738 680.842224 319.476593 687.732788 319.476593 L 737.628113 319.476593 C 758.262512 319.476593 775.050049 336.265625 775.050049 356.898438 L 775.050049 392.820282 C 775.051575 399.710907 780.635925 405.293732 787.52655 405.293732 Z M 664.448425 439.228119 C 703.424988 439.228119 735.134338 470.9375 735.134338 509.914063 C 735.134338 548.890625 703.424988 580.599976 664.448425 580.599976 C 625.471863 580.599976 593.762512 548.890625 593.762512 509.914063 C 593.762512 470.9375 625.471863 439.228119 664.448425 439.228119 Z M 348.440613 439.228119 C 387.417206 439.228119 419.126556 470.9375 419.126556 509.914063 C 419.126556 548.890625 387.417206 580.599976 348.440613 580.599976 C 309.464081 580.599976 277.7547 548.890625 277.7547 509.914063 C 277.7547 470.9375 309.464081 439.228119 348.440613 439.228119 Z M 142.203125 439.228119 C 181.179688 439.228119 212.889053 470.9375 212.889053 509.914063 C 212.889053 548.890625 181.179688 580.599976 142.203125 580.599976 C 103.226563 580.599976 71.517189 548.889038 71.517189 509.914063 C 71.517189 470.939026 103.226563 439.228119 142.203125 439.228119 Z M 404.068756 113.435913 L 443.860962 183.673462 L 386.799988 312.207825 L 307.040619 331.998413 L 404.068756 113.435913 Z M 27.465624 150.153137 L 82.659378 25.820313 L 241.054672 33.845337 L 138.503128 264.851563 L 27.465624 150.153137 Z M 83.159378 381.017181 L 68.19062 381.017181 L 68.19062 228.090637 L 83.159378 243.553131 L 83.159378 381.017181 Z M 316.007813 381.017181 L 108.107819 381.017181 L 108.107819 269.323456 L 133.435944 295.489044 C 134.550003 296.639069 135.873444 297.5625 137.337509 298.21405 L 280.229675 361.650024 C 282.75 362.770294 285.618744 363.020294 288.296875 362.356262 L 316.007813 355.479706 L 316.007813 381.017181 Z M 355.925018 381.017181 L 340.956268 381.017181 L 340.956268 349.289063 L 355.925018 345.574982 L 355.925018 381.017181 Z"/>
            </g>
        </g>
        <g id="g3">
            <g id="g4">
                <path id="path2" fill="#f9f9f9" stroke="none" d="M 612.890625 148.168762 L 528.0672 148.168762 C 521.176575 148.168762 515.59375 153.751587 515.59375 160.642212 L 515.59375 307.004669 C 515.59375 313.895294 521.176575 319.478119 528.0672 319.478119 L 647.8172 319.478119 C 654.707825 319.478119 660.290649 313.893738 660.290649 307.004669 L 660.290649 195.570313 C 660.290649 169.4328 639.02655 148.168762 612.890625 148.168762 Z M 635.34375 294.529694 L 540.540649 294.529694 L 540.540649 173.115601 L 612.890625 173.115601 C 625.271912 173.115601 635.34375 183.1875 635.34375 195.568756 L 635.34375 294.529694 Z"/>
            </g>
        </g>
        <g id="g5">
            <g id="g6">
                <path id="path3" fill="#f9f9f9" stroke="none" d="M 567.982788 331.120331 L 528.065613 331.120331 C 521.174988 331.120331 515.592163 336.703125 515.592163 343.593781 C 515.592163 350.484406 521.174988 356.0672 528.065613 356.0672 L 567.982788 356.0672 C 574.873474 356.0672 580.456238 350.484406 580.456238 343.593781 C 580.457825 336.703125 574.873474 331.120331 567.982788 331.120331 Z"/>
            </g>
        </g>
        <g id="g7">
            <g id="g8">
                <path id="path4" fill="#f9f9f9" stroke="none" d="M 664.448425 454.196869 C 633.726563 454.196869 608.731262 479.1922 608.731262 509.914063 C 608.731262 540.635925 633.726563 565.631287 664.448425 565.631287 C 695.171875 565.631287 720.165649 540.635925 720.165649 509.914063 C 720.165649 479.1922 695.171875 454.196869 664.448425 454.196869 Z M 664.448425 540.684387 C 647.482849 540.684387 633.679688 526.881226 633.679688 509.915619 C 633.679688 492.949982 647.482849 479.146881 664.448425 479.146881 C 681.414063 479.146881 695.217163 492.949982 695.217163 509.915619 C 695.21875 526.881226 681.415588 540.684387 664.448425 540.684387 Z"/>
            </g>
        </g>
        <g id="g9">
            <g id="g10">
                <path id="path5" fill="#f9f9f9" stroke="none" d="M 348.440613 454.196869 C 317.71875 454.196869 292.72345 479.1922 292.72345 509.914063 C 292.72345 540.635925 317.71875 565.631287 348.440613 565.631287 C 379.164063 565.631287 404.157837 540.635925 404.157837 509.914063 C 404.157837 479.1922 379.164063 454.196869 348.440613 454.196869 Z M 348.440613 540.684387 C 331.475006 540.684387 317.671875 526.881226 317.671875 509.915619 C 317.671875 492.949982 331.475006 479.146881 348.440613 479.146881 C 365.40625 479.146881 379.209381 492.949982 379.209381 509.915619 C 379.209381 526.881226 365.407806 540.684387 348.440613 540.684387 Z"/>
            </g>
        </g>
        <g id="g11">
            <g id="g12">
                <path id="path6" fill="#f9f9f9" stroke="none" d="M 142.203125 454.196869 C 111.481247 454.196869 86.485939 479.1922 86.485939 509.914063 C 86.485939 540.635925 111.481247 565.631287 142.203125 565.631287 C 172.926559 565.631287 197.920303 540.635925 197.920303 509.914063 C 197.920303 479.1922 172.926559 454.196869 142.203125 454.196869 Z M 142.203125 540.684387 C 125.237503 540.684387 111.43438 526.881226 111.43438 509.915619 C 111.43438 492.949982 125.237503 479.146881 142.203125 479.146881 C 159.168747 479.146881 172.971878 492.949982 172.971878 509.915619 C 172.97345 526.881226 159.170319 540.684387 142.203125 540.684387 Z"/>
            </g>
        </g>
    </g>
</svg>
