<?xml version="1.0" encoding="UTF-8"?>
<!-- Generated by Pixelmator Pro 2.4.2 -->
<svg width="734" height="734" viewBox="0 0 734 734" xmlns="http://www.w3.org/2000/svg" xmlns:xlink="http://www.w3.org/1999/xlink">
    <g id="SVGRepobgCarrier"/>
    <g id="SVGRepotracerCarrier"/>
    <g id="SVGRepoiconCarrier">
        <path id="path1" fill="#f9f9f9" fill-rule="evenodd" stroke="none" d="M 133.666672 100.333313 C 133.666672 45.10498 178.438339 0.333313 233.666656 0.333313 L 633.666687 0.333313 C 688.896667 0.333313 733.666687 45.10498 733.666687 100.333313 L 733.666687 167 C 733.666687 222.228333 688.896667 267 633.666687 267 L 233.666656 267 C 178.438339 267 133.666672 222.228333 133.666672 167 L 100.333328 167 C 81.924004 167 67 181.924011 67 200.333313 L 67 267 C 67 285.409363 81.924004 300.333344 100.333328 300.333344 L 367 300.333344 C 422.230011 300.333344 467 345.103333 467 400.333344 L 467 433.666656 C 503.820007 433.666656 533.666687 463.513336 533.666687 500.333344 L 533.666687 667 C 533.666687 703.820007 503.820007 733.666687 467 733.666687 L 400.333344 733.666687 C 363.513336 733.666687 333.666656 703.820007 333.666656 667 L 333.666656 500.333344 C 333.666656 463.513336 363.513336 433.666656 400.333344 433.666656 L 400.333344 400.333344 C 400.333344 381.923309 385.410004 367 367 367 L 100.333328 367 C 45.104996 367 0.333332 322.230011 0.333332 267 L 0.333332 200.333313 C 0.333332 145.10498 45.104996 100.333313 100.333328 100.333313 L 133.666672 100.333313 Z M 233.666656 67 C 215.257339 67 200.333328 81.924011 200.333328 100.333313 L 200.333328 167 C 200.333328 185.409302 215.257339 200.333313 233.666656 200.333313 L 633.666687 200.333313 C 652.07666 200.333313 667 185.409302 667 167 L 667 100.333313 C 667 81.924011 652.07666 67 633.666687 67 L 233.666656 67 Z M 467 667 L 467 500.333344 L 400.333344 500.333344 L 400.333344 667 L 467 667 Z"/>
    </g>
</svg>
