<?xml version="1.0" encoding="UTF-8"?>
<!-- Generated by Pixelmator Pro 2.4.2 -->
<svg width="800" height="690" viewBox="0 0 800 690" xmlns="http://www.w3.org/2000/svg" xmlns:xlink="http://www.w3.org/1999/xlink">
    <g id="SVGRepobgCarrier"/>
    <g id="SVGRepotracerCarrier"/>
    <g id="SVGRepoiconCarrier">
        <g id="g1">
            <g id="g2">
                <g id="g3">
                    <path id="path1" fill="#f9f9f9" stroke="#f9f9f9" stroke-width="1.5625" stroke-linecap="round" stroke-linejoin="round" d="M 281.332794 228.575012 C 278.665619 217.907776 268 209.907837 256 209.907837 L 160 209.907837 C 145.332809 209.907837 133.332809 221.907776 133.332809 236.575012 L 133.332809 303.242188 C 133.332809 317.909393 145.332809 329.909363 160 329.909363 L 276 329.909363 C 284 329.909363 292 325.909363 296 319.242188 C 301.332794 311.242188 302.667175 303.242188 300 295.242188 L 281.332794 228.575012 Z M 160 303.242188 L 160 236.575012 L 256 236.575012 L 276 303.242188 L 160 303.242188 Z"/>
                    <path id="path2" fill="#f9f9f9" stroke="#f9f9f9" stroke-width="1.5625" stroke-linecap="round" stroke-linejoin="round" d="M 186.667191 609.907776 C 178.667191 609.907776 173.334366 615.240662 173.334366 623.240601 C 173.334366 631.240601 178.667191 636.573425 186.667191 636.573425 C 194.667191 636.573425 200 631.240601 200 623.240601 C 200 615.240662 194.667191 609.907776 186.667191 609.907776 Z"/>
                    <path id="path3" fill="#f9f9f9" stroke="#f9f9f9" stroke-width="1.5625" stroke-linecap="round" stroke-linejoin="round" d="M 253.332809 609.907776 C 245.332809 609.907776 240.000015 615.240662 240.000015 623.240601 C 240.000015 631.240601 245.332809 636.573425 253.332809 636.573425 C 261.332825 636.573425 266.665619 631.240601 266.665619 623.240601 C 266.665619 615.240662 261.332825 609.907776 253.332809 609.907776 Z"/>
                    <path id="path4" fill="#f9f9f9" stroke="#f9f9f9" stroke-width="1.5625" stroke-linecap="round" stroke-linejoin="round" d="M 320 609.907776 C 312 609.907776 306.667175 615.240662 306.667175 623.240601 C 306.667175 631.240601 312 636.573425 320 636.573425 C 328 636.573425 333.332794 631.240601 333.332794 623.240601 C 333.332794 615.240662 328 609.907776 320 609.907776 Z"/>
                    <path id="path5" fill="#f9f9f9" stroke="#f9f9f9" stroke-width="1.5625" stroke-linecap="round" stroke-linejoin="round" d="M 386.667175 609.907776 C 378.667175 609.907776 373.334381 615.240662 373.334381 623.240601 C 373.334381 631.240601 378.667175 636.573425 386.667175 636.573425 C 394.667206 636.573425 400 631.240601 400 623.240601 C 400 615.240662 394.667206 609.907776 386.667175 609.907776 Z"/>
                    <path id="path6" fill="#f9f9f9" stroke="#f9f9f9" stroke-width="1.5625" stroke-linecap="round" stroke-linejoin="round" d="M 453.332794 609.907776 C 445.332825 609.907776 440 615.240662 440 623.240601 C 440 631.240601 445.332825 636.573425 453.332794 636.573425 C 461.332794 636.573425 466.665588 631.240601 466.665588 623.240601 C 466.665588 615.240662 461.332794 609.907776 453.332794 609.907776 Z"/>
                    <path id="path7" fill="#f9f9f9" stroke="#f9f9f9" stroke-width="1.5625" stroke-linecap="round" stroke-linejoin="round" d="M 733.332825 251.048431 L 733.332825 76.575012 C 733.332825 76.068726 733.310913 75.573425 733.268738 75.087524 C 735.6875 68.012512 736.65625 60.456238 736 52.575012 C 734.667236 36.575012 726.667175 21.907837 714.667175 12.575012 C 692 -6.092163 658.667175 -3.424988 638.667175 17.907837 L 380.193756 291.439056 L 353.334381 171.242188 C 348.001556 147.242188 326.667175 129.909363 301.334381 129.909363 L 266.667206 129.909363 L 266.667206 103.242188 C 266.667206 73.909363 242.667206 49.909363 213.334366 49.909363 C 184.001572 49.909363 160.001556 73.909363 160.001556 103.242188 L 160.001556 129.909363 L 120.000008 129.909363 C 90.667191 129.909363 66.667191 153.909363 66.667191 183.242188 L 66.667191 383.242188 L 66.667191 409.909363 L 66.667191 556.576538 C 29.332813 556.574951 0 585.907837 0 623.242188 C 0 660.576538 29.332813 689.909363 66.667191 689.909363 L 573.334351 689.909363 C 610.667175 689.909363 640.001587 660.576538 640.001587 623.242188 C 640.001587 585.907837 610.668762 556.574951 573.334351 556.574951 L 555.295349 556.574951 L 600 429.907806 C 605.332825 420.575012 604 408.574982 598.667175 399.240601 C 592 388.573425 582.667236 383.240631 570.667175 383.240631 L 444.457825 383.240631 L 706.667175 110.496887 L 706.667175 251.048431 C 668.957825 257.446869 640 290.449982 640 329.907806 C 640 373.907837 676 409.907776 720 409.907776 C 764 409.907776 800 373.907837 800 329.907806 C 800 290.449982 771.042175 257.446869 733.332825 251.048431 Z M 186.667191 103.242188 C 186.667191 88.575012 198.667191 76.575012 213.334366 76.575012 C 228.001572 76.575012 240.001556 88.575012 240.001556 103.242188 L 240.001556 129.909363 L 186.668747 129.909363 L 186.668747 103.242188 Z M 93.332817 183.242188 C 93.332817 168.575012 105.332817 156.575012 120.000008 156.575012 L 160 156.575012 L 266.667206 156.575012 L 300 156.575012 C 313.332825 156.575012 324 165.907837 326.667175 177.907837 L 373.334381 383.240631 L 93.334373 383.240631 L 93.334373 183.242188 Z M 519.6828 663.242188 L 120.317184 663.242188 C 128.520309 652.164063 133.332809 638.360962 133.332809 623.242188 C 133.332809 608.123413 128.520309 594.320313 120.317184 583.242188 L 519.6828 583.242188 C 511.479675 594.320313 506.667175 608.123413 506.667175 623.242188 C 506.667175 638.360962 511.479675 652.164063 519.6828 663.242188 Z M 26.667187 623.242188 C 26.667187 600.574951 44 583.242188 66.667191 583.242188 C 89.334373 583.242188 106.667183 600.574951 106.667183 623.242188 C 106.667183 645.909363 89.334373 663.242188 66.667191 663.242188 C 44 663.242188 26.667187 645.907837 26.667187 623.242188 Z M 613.332825 623.242188 C 613.332825 645.909363 596 663.242188 573.332825 663.242188 C 550.665588 663.242188 533.332825 645.909363 533.332825 623.242188 C 533.332825 600.574951 550.665588 583.242188 573.332825 583.242188 C 596 583.242188 613.332825 600.574951 613.332825 623.242188 Z M 576 413.907837 C 576 413.907837 577.332825 416.575012 576 419.240631 L 528 553.907776 C 526.667175 555.240601 525.332825 556.574951 522.667175 556.574951 L 93.332817 556.574951 L 93.332817 516.575012 L 386.665619 516.575012 C 394.665619 516.575012 399.998413 511.242188 399.998413 503.242188 C 399.998413 495.242188 394.665619 489.909363 386.665619 489.909363 L 93.332817 489.909363 L 93.332817 463.242157 L 306.665649 463.242157 C 314.665619 463.242157 319.998444 457.909363 319.998444 449.909363 C 319.998444 441.909393 314.665619 436.576569 306.665649 436.576569 L 93.332817 436.576569 L 93.332817 411.243744 L 570.665649 411.243744 C 573.332825 411.242157 576 412.574982 576 413.907837 Z M 408 383.242188 L 401.332794 383.242188 L 391.782806 343.304688 L 386.939087 321.625 L 658.667175 37.907837 C 669.334351 27.240601 686.667175 25.907837 698.667175 35.240601 C 705.334351 39.240601 709.334351 47.240601 709.334351 55.240601 C 709.334351 63.240601 706.667175 71.240601 701.334351 76.573425 L 408 383.242188 Z M 720 383.242188 C 690.667175 383.242188 666.667175 359.242188 666.667175 329.909363 C 666.667175 300.576569 690.667175 276.576569 720 276.576569 C 749.332825 276.576569 773.332825 300.576569 773.332825 329.909363 C 773.332825 359.242188 749.332825 383.242188 720 383.242188 Z"/>
                </g>
            </g>
        </g>
    </g>
</svg>
