<?xml version="1.0" encoding="UTF-8"?>
<!-- Generated by Pixelmator Pro 2.4.2 -->
<svg width="736" height="737" viewBox="0 0 736 737" xmlns="http://www.w3.org/2000/svg" xmlns:xlink="http://www.w3.org/1999/xlink">
    <path id="path1" fill="#ffbe0b" stroke="none" d="M 670.5 0.5 C 670 0.625 669.5 0.8125 669 1 L 608 1 C 603.6875 1 599.5 2.9375 596.5 6 L 371.5 234.5 L 391 259.5 L 451.5 198.5 L 462.5 303 L 445 329 L 463 352.5 C 463.8125 353.5625 464.75 354.4375 465.5 355.5 L 656 70 L 656 421.5 C 646.4375 427.0625 640 437.1875 640 449 C 640 460.8125 646.4375 470.9375 656 476.5 L 656 496.5 C 656 511.5 665.75 525.625 681 530 C 696.0625 534.3125 706.625 549.25 703.5 567 C 701.3125 579.375 690.4375 590.3125 678 592.5 C 657 596.1875 640 580.8125 640 561 C 640.0625 555.25 637.0625 549.875 632.0625 546.9375 C 627.0625 544.0625 620.9375 544.0625 615.9375 546.9375 C 610.9375 549.875 607.9375 555.25 608 561 C 608 599.9375 643.8125 630.9375 683.5 624 C 709.6875 619.375 730.4375 598.6875 735 572.5 C 740.875 539 719.875 508.125 689.5 499.5 C 688.875 499.3125 688 498 688 496.5 L 688 476.5 C 697.5625 470.9375 704 460.8125 704 449 C 704 437.1875 697.5625 427.0625 688 421.5 L 688 18 C 688.0625 17.25 688.0625 16.25 688 15.5 C 687.625 11.9375 686 8.5625 683.5 6 C 680.25 2.25 675.4375 0.25 670.5 0.5 Z M 614.5 33 L 642 33 L 587.5 115 L 583 64.5 Z M 553.5 95 L 557.5 144 L 501.5 147.5 Z M 546.5 176.5 L 490 261 L 481.5 181 Z M 96 225 C 69.687508 225 48 246.6875 48 273 L 48 465 C 48 491.3125 69.687508 513 96 513 L 144 513 L 144 545 L 96 545 C 43.187508 545 0 588.1875 0 641 C 0 693.8125 43.187508 737 96 737 L 448 737 C 500.8125 737 544 693.8125 544 641 C 544 588.1875 500.8125 545 448 545 L 400 545 L 400 513 L 416 513 C 442.3125 513 464 491.3125 464 465 L 464 401.5 C 464 387.25 459.25 373.25 450.5 362 L 358 243.5 C 348.9375 231.8125 335.3125 225 320.5 225 Z M 96 257 L 228 257 L 272.5 421 L 276 433 L 432 433 L 432 465 C 432 474.0625 425.0625 481 416 481 L 96 481 C 86.937508 481 80 474.0625 80 465 L 80 273 C 80 263.9375 86.937508 257 96 257 Z M 261 257 L 320.5 257 C 325.4375 257 329.9375 259.125 333 263 L 425.5 382 C 429.75 387.5 431.875 394.0625 432 401 L 300 401 Z M 176 513 L 368 513 L 368 545 L 176 545 Z M 96 577 L 448 577 C 483.5 577 512 605.5 512 641 C 512 676.5 483.5 705 448 705 L 96 705 C 60.5 705 32 676.5 32 641 C 32 605.5 60.5 577 96 577 Z M 96 609 C 78.312492 609 64 623.3125 64 641 C 64 658.6875 78.312492 673 96 673 C 113.6875 673 128 658.6875 128 641 C 128 623.3125 113.6875 609 96 609 Z M 192 609 C 174.3125 609 160 623.3125 160 641 C 160 658.6875 174.3125 673 192 673 C 209.6875 673 224 658.6875 224 641 C 224 623.3125 209.6875 609 192 609 Z M 352 609 C 334.3125 609 320 623.3125 320 641 C 320 658.6875 334.3125 673 352 673 C 369.6875 673 384 658.6875 384 641 C 384 623.3125 369.6875 609 352 609 Z M 448 609 C 430.3125 609 416 623.3125 416 641 C 416 658.6875 430.3125 673 448 673 C 465.6875 673 480 658.6875 480 641 C 480 623.3125 465.6875 609 448 609 Z"/>
</svg>
