<?xml version="1.0" encoding="UTF-8"?>
<!-- Generated by Pixelmator Pro 2.4.2 -->
<svg width="718" height="718" viewBox="0 0 718 718" xmlns="http://www.w3.org/2000/svg" xmlns:xlink="http://www.w3.org/1999/xlink">
    <g id="SVGRepobgCarrier"/>
    <g id="SVGRepotracerCarrier"/>
    <g id="SVGRepoiconCarrier">
        <path id="path1" fill="none" stroke="#ffbe0b" stroke-width="50" stroke-linecap="round" stroke-linejoin="round" d="M 259 425.666656 L 359 425.666656"/>
        <path id="path2" fill="none" stroke="#ffbe0b" stroke-width="50" stroke-linecap="round" stroke-linejoin="round" d="M 292.333344 359 L 292.333344 232.333313 C 292.333344 226.140015 292.333344 223.043335 292.743317 220.452332 C 295.003326 206.189026 306.190002 195.002686 320.453339 192.743652 C 323.043335 192.333313 326.140015 192.333313 332.333313 192.333313 L 409 192.333313 C 455.023346 192.333313 492.333313 229.643005 492.333313 275.666656 C 492.333313 321.690002 455.023346 359 409 359 L 292.333344 359 Z M 292.333344 359 L 292.333344 525.666687 M 292.333344 359 L 259 359"/>
        <path id="path3" fill="none" stroke="#ffbe0b" stroke-width="50" stroke-linecap="round" stroke-linejoin="round" d="M 192.333328 70.260681 C 241.362335 41.898987 298.286682 25.666687 359 25.666687 C 543.093323 25.666687 692.333313 174.905029 692.333313 359 C 692.333313 543.093384 543.093323 692.333313 359 692.333313 C 174.904999 692.333313 25.666664 543.093384 25.666664 359 C 25.666664 298.286682 41.899002 241.362305 70.260666 192.333313"/>
    </g>
</svg>
