<?xml version="1.0" encoding="UTF-8"?>
<!-- Generated by Pixelmator Pro 2.4.2 -->
<svg width="718" height="718" viewBox="0 0 718 718" xmlns="http://www.w3.org/2000/svg" xmlns:xlink="http://www.w3.org/1999/xlink">
    <g id="SVGRepobgCarrier"/>
    <g id="SVGRepotracerCarrier"/>
    <g id="SVGRepoiconCarrier">
        <path id="path1" fill="none" stroke="#f9f9f9" stroke-width="50" stroke-linecap="round" stroke-linejoin="round" d="M 692.333313 570 C 692.333313 582 689.666626 594.333313 684 606.333374 C 678.333313 618.333374 671 629.666687 661.333374 640.333374 C 645 658.333313 627 671.333374 606.666626 679.666687 C 586.666626 688 565 692.333313 541.666687 692.333313 C 507.666687 692.333313 471.333344 684.333374 433 668 C 394.666656 651.666687 356.333344 629.666687 318.333344 602 C 280 574 243.666687 543 209 508.666656 C 174.666672 474 143.666672 437.666656 116 399.666687 C 88.666656 361.666656 66.666672 323.666656 50.666664 286 C 34.666664 248 26.666664 211.666687 26.666664 177 C 26.666664 154.333313 30.666664 132.666687 38.666664 112.666687 C 46.666664 92.333313 59.333336 73.666687 77 57 C 98.333344 36 121.666656 25.666687 146.333344 25.666687 C 155.666656 25.666687 165 27.666687 173.333344 31.666687 C 182 35.666687 189.666656 41.666687 195.666672 50.333313 L 273 159.333313 C 279 167.666687 283.333313 175.333313 286.333344 182.666687 C 289.333344 189.666687 291 196.666687 291 203 C 291 211 288.666656 219 284 226.666687 C 279.666687 234.333313 273.333313 242.333313 265.333313 250.333313 L 240 276.666656 C 236.333344 280.333344 234.666656 284.666687 234.666656 290 C 234.666656 292.666687 235 295 235.666687 297.666656 C 236.666687 300.333313 237.666656 302.333344 238.333344 304.333313 C 244.333313 315.333313 254.666687 329.666656 269.333313 347 C 284.333313 364.333344 300.333344 382 317.666656 399.666687 C 335.666687 417.333344 353 433.666656 370.666656 448.666656 C 388 463.333344 402.333344 473.333344 413.666656 479.333313 C 415.333344 480 417.333344 481 419.666656 482 C 422.333344 483 425 483.333313 428 483.333313 C 433.666656 483.333313 438 481.333344 441.666656 477.666687 L 467 452.666687 C 475.333313 444.333344 483.333313 438 491 434 C 498.666687 429.333313 506.333313 427 514.666626 427 C 521 427 527.666687 428.333344 535 431.333344 C 542.333313 434.333344 550 438.666687 558.333374 444.333344 L 668.666687 522.666626 C 677.333374 528.666687 683.333374 535.666626 687 544 C 690.333313 552.333313 692.333313 560.666626 692.333313 570 Z"/>
    </g>
</svg>
