<?xml version="1.0" encoding="UTF-8"?>
<!-- Generated by Pixelmator Pro 2.4.2 -->
<svg width="767" height="767" viewBox="0 0 767 767" xmlns="http://www.w3.org/2000/svg" xmlns:xlink="http://www.w3.org/1999/xlink">
    <g id="SVGRepobgCarrier"/>
    <g id="SVGRepotracerCarrier"/>
    <g id="SVGRepoiconCarrier">
        <path id="path1" fill="#003366" fill-rule="evenodd" stroke="none" d="M 183.333328 0.333313 C 164.923996 0.333313 150 15.257324 150 33.666687 L 150 67 L 116.666672 67 C 61.438332 67 16.666664 111.771667 16.666664 167 L 16.666664 633.666687 C 16.666664 688.896667 61.438332 733.666687 116.666672 733.666687 L 386.699982 733.666687 C 367.169983 714.529968 350.990021 691.986633 339.119995 667 L 116.666672 667 C 98.257339 667 83.333328 652.07666 83.333328 633.666687 L 83.333328 333.666656 L 616.666687 333.666656 L 616.666687 343.329987 C 640.746704 350.496674 663.200012 361.446655 683.333313 375.48999 L 683.333313 167 C 683.333313 111.771667 638.563354 67 583.333313 67 L 550 67 L 550 33.666687 C 550 15.257324 535.07666 0.333313 516.666687 0.333313 C 498.256714 0.333313 483.333313 15.257324 483.333313 33.666687 L 483.333313 67 L 216.666656 67 L 216.666656 33.666687 C 216.666656 15.257324 201.742661 0.333313 183.333328 0.333313 Z M 483.333313 167 L 483.333313 133.666687 L 216.666656 133.666687 L 216.666656 167 C 216.666656 185.409302 201.742661 200.333313 183.333328 200.333313 C 164.923996 200.333313 150 185.409302 150 167 L 150 133.666687 L 116.666672 133.666687 C 98.257339 133.666687 83.333328 148.590698 83.333328 167 L 83.333328 267 L 616.666687 267 L 616.666687 167 C 616.666687 148.590698 601.743286 133.666687 583.333313 133.666687 L 550 133.666687 L 550 167 C 550 185.409302 535.07666 200.333313 516.666687 200.333313 C 498.256714 200.333313 483.333313 185.409302 483.333313 167 Z"/>
        <path id="path2" fill="#003366" stroke="none" d="M 516.666687 500.333344 C 516.666687 481.923309 531.590027 467 550 467 C 568.409973 467 583.333313 481.923309 583.333313 500.333344 L 583.333313 557.099976 L 612.669983 586.43335 C 625.686646 599.453369 625.686646 620.556702 612.669983 633.57666 C 599.65332 646.593323 578.546631 646.593323 565.530029 633.57666 L 526.429993 594.476685 C 519.426636 587.473389 516.190002 578.126648 516.723328 568.959961 C 516.686707 568.310059 516.666687 567.656616 516.666687 567 L 516.666687 500.333344 Z"/>
        <path id="path3" fill="#003366" fill-rule="evenodd" stroke="none" d="M 750 567 C 750 677.456665 660.456665 767 550 767 C 439.543335 767 350 677.456665 350 567 C 350 456.543335 439.543335 367 550 367 C 660.456665 367 750 456.543335 750 567 Z M 416.063354 567 C 416.063354 640.970032 476.030029 700.936707 550 700.936707 C 623.970032 700.936707 683.936707 640.970032 683.936707 567 C 683.936707 493.029999 623.970032 433.063354 550 433.063354 C 476.030029 433.063354 416.063354 493.029999 416.063354 567 Z"/>
    </g>
</svg>
