<?xml version="1.0" encoding="UTF-8"?>
<!-- Generated by Pixelmator Pro 2.4.2 -->
<svg width="734" height="734" viewBox="0 0 734 734" xmlns="http://www.w3.org/2000/svg" xmlns:xlink="http://www.w3.org/1999/xlink">
    <g id="SVGRepobgCarrier"/>
    <g id="SVGRepotracerCarrier"/>
    <g id="SVGRepoiconCarrier">
        <path id="path1" fill="none" stroke="#003366" stroke-width="68" stroke-linecap="round" stroke-linejoin="round" d="M 700.333313 578 C 700.333313 590 697.666626 602.333313 692 614.333374 C 686.333313 626.333374 679 637.666687 669.333374 648.333374 C 653 666.333313 635 679.333374 614.666626 687.666687 C 594.666626 696 573 700.333313 549.666687 700.333313 C 515.666687 700.333313 479.333344 692.333374 441 676 C 402.666656 659.666687 364.333344 637.666687 326.333344 610 C 288 582 251.666687 551 217 516.666626 C 182.666672 482 151.666672 445.666656 124 407.666687 C 96.666656 369.666656 74.666672 331.666656 58.666664 294 C 42.666664 256 34.666664 219.666687 34.666664 185 C 34.666664 162.333313 38.666664 140.666687 46.666664 120.666687 C 54.666664 100.333313 67.333336 81.666687 85 65 C 106.333344 44 129.666656 33.666687 154.333344 33.666687 C 163.666656 33.666687 173 35.666687 181.333344 39.666687 C 190 43.666687 197.666656 49.666687 203.666672 58.333313 L 281 167.333313 C 287 175.666687 291.333313 183.333313 294.333344 190.666687 C 297.333344 197.666687 299 204.666687 299 211 C 299 219 296.666656 227 292 234.666687 C 287.666687 242.333313 281.333313 250.333313 273.333313 258.333313 L 248 284.666656 C 244.333344 288.333344 242.666656 292.666687 242.666656 298 C 242.666656 300.666687 243 303 243.666687 305.666656 C 244.666687 308.333313 245.666656 310.333344 246.333344 312.333313 C 252.333313 323.333313 262.666687 337.666656 277.333313 355 C 292.333313 372.333344 308.333344 390 325.666656 407.666687 C 343.666687 425.333344 361 441.666656 378.666656 456.666656 C 396 471.333344 410.333344 481.333344 421.666656 487.333313 C 423.333344 488 425.333344 489 427.666656 490 C 430.333344 491 433 491.333313 436 491.333313 C 441.666656 491.333313 446 489.333344 449.666656 485.666687 L 475 460.666687 C 483.333313 452.333344 491.333313 446 499 442 C 506.666687 437.333313 514.333313 435 522.666626 435 C 529 435 535.666687 436.333344 543 439.333344 C 550.333313 442.333344 558 446.666687 566.333374 452.333344 L 676.666687 530.666626 C 685.333374 536.666687 691.333374 543.666626 695 552 C 698.333313 560.333313 700.333313 568.666626 700.333313 578 Z"/>
    </g>
</svg>
