<?xml version="1.0" encoding="UTF-8"?>
<!-- Generated by Pixelmator Pro 2.4.2 -->
<svg width="734" height="734" viewBox="0 0 734 734" xmlns="http://www.w3.org/2000/svg" xmlns:xlink="http://www.w3.org/1999/xlink">
    <g id="SVGRepobgCarrier"/>
    <g id="SVGRepotracerCarrier"/>
    <g id="SVGRepoiconCarrier">
        <path id="path1" fill="#f9f9f9" fill-rule="evenodd" stroke="none" d="M 733.666687 168 L 733.666687 568 C 733.666687 623.07666 688.743347 668 633.666687 668 L 100.333328 668 C 45.257332 668 0.333332 623.07666 0.333332 568 L 0.333332 168 C 0.333332 112.771667 45.104996 68 100.333328 68 L 633.666687 68 C 688.896667 68 733.666687 112.771667 733.666687 168 Z M 70.552666 153.131653 C 76.065331 142.230652 87.401337 134.666687 100.333328 134.666687 L 633.666687 134.666687 C 646.600037 134.666687 657.93335 142.230652 663.446655 153.131653 L 367 360.643311 L 70.552666 153.131653 Z M 67 232.021973 L 328.769989 415.26001 C 351.723358 431.330017 382.276642 431.330017 405.230011 415.26001 L 667 232.021973 L 667 568 C 667 586.256714 651.92334 601.333313 633.666687 601.333313 L 100.333328 601.333313 C 82.076004 601.333313 67 586.256714 67 568 L 67 232.021973 Z"/>
    </g>
</svg>
