<?xml version="1.0" encoding="UTF-8"?>
<!-- Generated by Pixelmator Pro 2.4.2 -->
<svg width="722" height="740" viewBox="0 0 722 740" xmlns="http://www.w3.org/2000/svg" xmlns:xlink="http://www.w3.org/1999/xlink">
    <g id="SVGRepobgCarrier"/>
    <g id="SVGRepotracerCarrier"/>
    <g id="SVGRepoiconCarrier">
        <path id="path1" fill="#f9f9f9" stroke="#f9f9f9" stroke-width="1.5625" stroke-linecap="round" stroke-linejoin="round" d="M 22.807812 -0.3125 L 466.375 396.5625 L 699.1922 396.5625 L 255.625 -0.3125 L 22.809372 -0.3125 Z M 0.0625 17.078125 L 0.0625 57.46405 L 446.9375 457.296875 L 446.9375 416.912476 L 0.0625 17.078125 Z M 100.0625 184.676575 L 100.0625 238.71405 L 546.9375 638.546875 L 546.9375 505.979706 L 446.9375 485.664063 L 100.0625 184.676575 Z M 82.179688 260.453125 L 15.148438 277.207825 L 464.820313 679.548401 L 531.851563 662.793762 L 82.181252 260.453125 Z M 0.0625 301.453125 L 0.0625 338.714081 L 446.9375 738.546875 L 446.9375 701.28595 L 0.0625 301.453125 Z M 475.0625 424.6875 L 475.0625 459.020294 L 575.0625 484.020294 L 575.0625 680.979675 L 475.0625 705.979675 L 475.0625 740.3125 L 721.9375 740.3125 L 721.9375 705.979675 L 621.9375 680.979675 L 621.9375 484.020294 L 721.9375 459.020294 L 721.9375 424.6875 L 475.0625 424.6875 Z M 650.0625 636.976563 L 650.0625 659.020325 L 684.25 667.5672 L 650.0625 636.976563 Z"/>
    </g>
</svg>
