<?xml version="1.0" encoding="UTF-8"?>
<!-- Generated by Pixelmator Pro 2.4.2 -->
<svg width="700" height="700" viewBox="0 0 700 700" xmlns="http://www.w3.org/2000/svg" xmlns:xlink="http://www.w3.org/1999/xlink">
    <g id="SVGRepobgCarrier"/>
    <g id="SVGRepotracerCarrier"/>
    <g id="SVGRepoiconCarrier">
        <path id="path1" fill="none" stroke="#003366" stroke-width="50" stroke-linecap="round" stroke-linejoin="round" d="M 400 675 L 100 675 C 60 675 25 642.5 25 600 L 25 600 C 25 560 57.500008 525 100 525 L 400 525 C 440 525 475 557.5 475 600 L 475 600 C 475 642.5 442.500031 675 400 675 Z"/>
        <path id="path2" fill="none" stroke="#003366" stroke-width="50" stroke-linecap="round" stroke-linejoin="round" d="M 325 225 L 225 225 L 225 350 L 150 350 C 95 350 50 394.999969 50 450 L 50 450 L 225 450 L 425 450 L 425 400 L 425 350 L 325 225 Z"/>
        <path id="path3" fill="none" stroke="#003366" stroke-width="50" stroke-linecap="round" stroke-linejoin="round" d="M 125 600 L 125 600"/>
        <path id="path4" fill="none" stroke="#003366" stroke-width="50" stroke-linecap="round" stroke-linejoin="round" d="M 375 600 L 375 600"/>
        <path id="path5" fill="none" stroke="#003366" stroke-width="50" stroke-linecap="round" stroke-linejoin="round" d="M 250 600 L 250 600"/>
        <path id="path6" fill="none" stroke="#003366" stroke-width="50" stroke-linecap="round" stroke-linejoin="round" d="M 500 350 L 675 300 L 662.5 365 C 655 400 625 425 590 425 L 590 425 C 565 425 542.5 412.5 527.5 392.500031 L 500 350 Z"/>
        <path id="path7" fill="none" stroke="#003366" stroke-width="50" stroke-linecap="round" stroke-linejoin="round" d="M 675 300 L 550 25 L 375 25 L 225 225 L 325 225 L 375 25"/>
        <path id="path8" fill="none" stroke="#003366" stroke-width="50" stroke-linecap="round" stroke-linejoin="round" d="M 600 300 L 475 25"/>
        <path id="path9" fill="none" stroke="#003366" stroke-width="50" stroke-linecap="round" stroke-linejoin="round" d="M 500 300 L 500 350"/>
        <path id="path10" fill="none" stroke="#003366" stroke-width="50" stroke-linecap="round" stroke-linejoin="round" d="M 225 300 L 292.5 300 L 292.5 300 C 305 330 335 350 365 350 L 425 350"/>
    </g>
</svg>
