<?xml version="1.0" encoding="UTF-8"?>
<!-- Generated by Pixelmator Pro 2.4.2 -->
<svg width="466" height="500" viewBox="0 0 466 500" xmlns="http://www.w3.org/2000/svg" xmlns:xlink="http://www.w3.org/1999/xlink">
    <g id="SVGRepobgCarrier"/>
    <g id="SVGRepotracerCarrier"/>
    <g id="SVGRepoiconCarrier">
        <g id="Layer2">
            <g id="invisiblebox">
                <path id="path1" fill="none" stroke="none" d="M -167 -150 L 633 -150 L 633 650 L -167 650 Z"/>
                <path id="path2" fill="none" stroke="none" d="M -167 -150 L 633 -150 L 633 650 L -167 650 Z"/>
                <path id="path3" fill="none" stroke="none" d="M -167 -150 L 633 -150 L 633 650 L -167 650 Z"/>
            </g>
            <g id="Q3icons">
                <path id="path4" fill="#ffbe0b" stroke="none" d="M 9.666672 291.666656 L 209.666687 490.000031 C 215.664246 496.536743 224.128723 500.257935 233 500.257935 C 241.871277 500.257935 250.335754 496.536743 256.333313 490.000031 L 456.333374 291.666656 C 468.25592 279.480438 469.663635 260.476563 459.666626 246.666656 C 454.199402 238.526154 445.269287 233.377777 435.484985 232.725494 C 425.700623 232.073212 416.166138 235.990631 409.666626 243.333344 L 266.333344 386.666687 L 266.333344 33.333313 C 266.333344 14.923828 251.409515 0 233 0 C 214.590485 0 199.666656 14.923828 199.666656 33.333313 L 199.666656 386.666687 L 56.333328 243.333344 C 49.833878 235.990631 40.299362 232.073212 30.51503 232.725494 C 20.730713 233.377777 11.800568 238.526154 6.333328 246.666656 C -3.663605 260.476563 -2.255905 279.480438 9.666672 291.666656 Z"/>
            </g>
        </g>
    </g>
</svg>
