<?xml version="1.0" encoding="UTF-8"?>
<!-- Generated by Pixelmator Pro 2.4.2 -->
<svg width="800" height="800" viewBox="0 0 800 800" xmlns="http://www.w3.org/2000/svg" xmlns:xlink="http://www.w3.org/1999/xlink">
    <g id="SVGRepobgCarrier"/>
    <g id="SVGRepotracerCarrier"/>
    <g id="SVGRepoiconCarrier">
        <g id="g1">
            <g id="g2">
                <path id="path1" fill="#003366" stroke="none" d="M 712.503174 365.198456 C 679.075012 365.198456 650.256226 385.234375 637.373474 413.918732 L 452.318756 413.918732 L 452.318756 335.66095 C 506.245331 304.590637 542.628174 246.351563 542.628174 179.770325 C 542.628174 80.645325 461.982819 0 362.857819 0 C 263.731232 0 183.085938 80.645325 183.085938 179.770325 C 183.085938 246.351563 219.468765 304.592194 273.396881 335.66095 L 273.396881 413.917206 L 162.807816 413.917206 C 150.012512 385.021881 121.081245 364.803131 87.498436 364.803131 C 42.099998 364.803131 5.165625 401.737488 5.165625 447.135925 L 5.165625 591.314087 C 5.165625 636.712524 42.099998 673.648438 87.498436 673.648438 C 121.081245 673.648438 150.012512 653.428101 162.807816 624.53125 L 364.751556 624.53125 L 364.751556 773.915649 C 364.751556 788.321899 376.431244 800.003174 390.83905 800.003174 L 549.27655 800.003174 C 563.6828 800.003174 575.364075 788.323425 575.364075 773.915649 L 575.364075 624.53125 L 637.014038 624.53125 C 649.71875 653.639099 678.767212 674.043762 712.503174 674.043762 C 757.90155 674.043762 794.835938 637.109375 794.835938 591.710938 L 794.835938 447.531281 C 794.834351 402.134369 757.898438 365.198456 712.503174 365.198456 Z M 117.657814 591.3125 C 117.657814 607.642212 104.371872 621.471863 87.498436 621.471863 C 70.868752 621.471863 57.34063 607.943787 57.34063 591.3125 L 57.34063 447.135925 C 57.34063 430.506226 70.868752 416.978119 87.498436 416.978119 C 104.317184 416.978119 117.657814 430.75 117.657814 447.135925 L 117.657814 591.3125 Z M 235.259369 179.768738 C 235.259369 109.414063 292.5 52.173462 362.857819 52.173462 C 433.21405 52.173462 490.454681 109.414063 490.454681 179.770325 C 490.454681 195.215637 487.692169 210.028137 482.642181 223.742188 C 452.299988 196.625 413.390625 180.396851 372.078125 178.282837 L 295.862518 119.501587 C 284.456238 110.703125 268.074982 112.818726 259.274994 124.228149 C 250.475006 135.637512 252.592178 152.017212 264.001556 160.815613 L 300.740631 189.150024 C 279.58905 196.954712 260.006256 208.693726 243.090637 223.789063 C 238.029694 210.060913 235.259369 195.232788 235.259369 179.768738 Z M 271.512512 268.735962 C 295.345306 244.342163 328.2453 230.215637 362.814056 230.203125 C 362.823425 230.203125 362.831268 230.203125 362.840637 230.203125 C 362.850006 230.203125 362.859375 230.201538 362.868744 230.201538 C 397.585938 230.203125 430.392181 244.304688 454.210938 268.724976 C 430.931244 292.626587 398.573456 307.367188 362.859375 307.367188 C 328.403107 307.368744 295.6875 293.549988 271.512512 268.735962 Z M 400.143768 355.685944 L 400.143768 413.918732 L 325.568756 413.918732 L 325.568756 355.685944 L 325.570313 355.685944 C 338.21875 358.354675 350.721893 359.545288 362.857819 359.545288 C 374.993744 359.543762 387.4953 358.354675 400.143768 355.685944 Z M 523.1875 747.826599 L 416.923431 747.826599 L 416.923431 624.529663 L 523.1875 624.529663 L 523.1875 747.826599 Z M 630.168762 572.356262 C 623.045288 572.356262 177.90625 572.356262 169.831253 572.356262 L 169.831253 466.092194 C 180.328125 466.092194 618.301575 466.092194 630.168762 466.092194 L 630.168762 572.356262 Z M 712.503174 621.867188 C 695.6828 621.867188 682.34375 608.103149 682.34375 591.709351 C 682.34375 440.337524 682.229736 446.810974 682.587463 443.876556 C 684.399963 428.967194 697.112488 417.371887 712.501587 417.371887 C 729.131287 417.371887 742.659363 430.899994 742.659363 447.529694 L 742.659363 591.709351 L 742.66095 591.709351 C 742.66095 608.33905 729.132813 621.867188 712.503174 621.867188 Z"/>
            </g>
        </g>
    </g>
</svg>
