<?xml version="1.0" encoding="UTF-8"?>
<!-- Generated by Pixelmator Pro 2.4.2 -->
<svg width="800" height="548" viewBox="0 0 800 548" xmlns="http://www.w3.org/2000/svg" xmlns:xlink="http://www.w3.org/1999/xlink">
    <g id="SVGRepobgCarrier"/>
    <g id="SVGRepotracerCarrier"/>
    <g id="SVGRepoiconCarrier">
        <path id="path1" fill="#f9f9f9" stroke="#f9f9f9" stroke-width="0.008" stroke-linecap="round" stroke-linejoin="round" d="M 739.119263 372.625153 L 739.119263 245.547791 C 739.119263 233.825958 729.616455 224.324921 717.896362 224.324921 L 690.396667 224.324921 L 690.396667 130.095398 C 690.396667 118.373596 680.89563 108.872559 669.173828 108.872559 C 657.451965 108.872559 647.950928 118.373596 647.950928 130.095398 L 647.950928 224.324921 L 561.047607 224.324921 L 561.047607 130.095398 C 561.047607 118.373596 551.5448 108.872559 539.824707 108.872559 L 414.382294 108.872559 C 405.208923 108.872559 397.072937 114.767456 394.215515 123.48407 L 388.650024 140.460693 L 86.168213 2.214966 C 81.047562 -0.124634 75.207031 -0.335205 69.933571 1.630859 C 64.658417 3.596985 60.381584 7.576721 58.041981 12.697327 L 25.27388 84.413635 C 20.896877 93.992798 24.207645 105.33429 33.051632 111.05426 L 56.028355 125.915344 L 56.028355 282.365204 C 23.722065 291.611572 -0 321.391479 -0 356.628235 C -0 399.225098 34.654385 433.879456 77.251213 433.879456 C 119.848038 433.879456 154.502426 399.223389 154.502426 356.628235 C 154.502426 321.391479 130.780365 291.611572 98.474075 282.365204 L 98.474075 153.369263 L 347.516724 314.445679 L 347.516724 372.626862 C 312.140747 384.747681 286.629181 418.312042 286.629181 457.744141 C 286.629181 507.352966 326.988251 547.712097 376.597137 547.712097 L 710.03717 547.712097 C 759.645996 547.712097 800.005066 507.352966 800.005066 457.744141 C 800.006775 418.310364 774.495239 384.745972 739.119263 372.625153 Z M 112.056709 356.628235 C 112.056709 375.820526 96.443474 391.433716 77.251213 391.433716 C 58.058956 391.433716 42.445721 375.820526 42.445721 356.628235 C 42.445721 337.436005 58.058956 321.822723 77.251213 321.822723 C 96.443474 321.822723 112.056709 337.436005 112.056709 356.628235 Z M 539.822998 266.77066 L 696.671814 266.77066 L 696.671814 367.774475 L 389.962433 367.774475 L 389.962433 290.540253 L 461.130341 290.540253 C 472.850433 290.540253 482.35321 281.039185 482.35321 269.317383 L 482.35321 151.318298 L 518.600159 151.318298 L 518.600159 245.547791 C 518.600159 257.269592 528.102844 266.77066 539.822998 266.77066 Z M 439.907471 151.318298 L 439.907471 248.094543 L 398.030518 248.094543 L 429.757843 151.318298 L 439.907471 151.318298 Z M 87.826988 49.64209 L 375.342438 181.048981 L 348.572754 262.706024 C 348.401276 263.227264 348.253571 263.75531 348.122833 264.286713 L 71.502365 85.372925 L 87.826988 49.64209 Z M 710.038879 505.266388 L 376.598816 505.266388 C 350.394531 505.266388 329.076599 483.948456 329.076599 457.744141 C 329.076599 431.539856 350.394531 410.221924 376.598816 410.221924 L 710.038879 410.221924 C 736.243103 410.221924 757.561096 431.539856 757.561096 457.744141 C 757.561096 483.948456 736.243103 505.266388 710.038879 505.266388 Z"/>
    </g>
</svg>
