<?xml version="1.0" encoding="UTF-8"?>
<!-- Generated by Pixelmator Pro 2.4.2 -->
<svg width="692" height="692" viewBox="0 0 692 692" xmlns="http://www.w3.org/2000/svg" xmlns:xlink="http://www.w3.org/1999/xlink">
    <g id="SVGRepobgCarrier"/>
    <g id="SVGRepotracerCarrier"/>
    <g id="SVGRepoiconCarrier">
        <path id="path1" fill="none" stroke="#f9f9f9" stroke-width="40" stroke-linecap="round" stroke-linejoin="round" d="M 396 671 L 96 671 C 56 671 21 638.5 21 596 L 21 596 C 21 556 53.500008 521 96 521 L 396 521 C 436 521 471 553.5 471 596 L 471 596 C 471 638.5 438.500031 671 396 671 Z"/>
        <path id="path2" fill="none" stroke="#f9f9f9" stroke-width="40" stroke-linecap="round" stroke-linejoin="round" d="M 321 221 L 221 221 L 221 346 L 146 346 C 91 346 46 390.999969 46 446 L 46 446 L 221 446 L 421 446 L 421 396 L 421 346 L 321 221 Z"/>
        <path id="path3" fill="none" stroke="#f9f9f9" stroke-width="40" stroke-linecap="round" stroke-linejoin="round" d="M 121 596 L 121 596"/>
        <path id="path4" fill="none" stroke="#f9f9f9" stroke-width="40" stroke-linecap="round" stroke-linejoin="round" d="M 371 596 L 371 596"/>
        <path id="path5" fill="none" stroke="#f9f9f9" stroke-width="40" stroke-linecap="round" stroke-linejoin="round" d="M 246 596 L 246 596"/>
        <path id="path6" fill="none" stroke="#f9f9f9" stroke-width="40" stroke-linecap="round" stroke-linejoin="round" d="M 496 346 L 671 296 L 658.5 361 C 651 396 621 421 586 421 L 586 421 C 561 421 538.5 408.5 523.5 388.500031 L 496 346 Z"/>
        <path id="path7" fill="none" stroke="#f9f9f9" stroke-width="40" stroke-linecap="round" stroke-linejoin="round" d="M 671 296 L 546 21 L 371 21 L 221 221 L 321 221 L 371 21"/>
        <path id="path8" fill="none" stroke="#f9f9f9" stroke-width="40" stroke-linecap="round" stroke-linejoin="round" d="M 596 296 L 471 21"/>
        <path id="path9" fill="none" stroke="#f9f9f9" stroke-width="40" stroke-linecap="round" stroke-linejoin="round" d="M 496 296 L 496 346"/>
        <path id="path10" fill="none" stroke="#f9f9f9" stroke-width="40" stroke-linecap="round" stroke-linejoin="round" d="M 221 296 L 288.5 296 L 288.5 296 C 301 326 331 346 361 346 L 421 346"/>
    </g>
</svg>
